<svg width="136" height="132" viewBox="0 0 136 132" fill="none" xmlns="http://www.w3.org/2000/svg">
<g filter="url(#filter0_d_723_5051)">
<circle cx="68" cy="64" r="44" fill="white"/>
</g>
<path fill-rule="evenodd" clip-rule="evenodd" d="M48.0682 63.8117C47.7766 64.1387 47.6154 64.5616 47.6154 65C47.6154 65.4384 47.7766 65.8613 48.0682 66.1883C49.8868 68.1443 52.8391 70.9955 56.5087 73.3497C60.1944 75.7142 64.4829 77.5 68.9998 77.5C73.5167 77.5 77.8052 75.7142 81.4909 73.3497C85.1605 70.9955 88.1128 68.1443 89.9314 66.1884C90.223 65.8614 90.3842 65.4384 90.3842 65C90.3842 64.5616 90.223 64.1387 89.9314 63.8116C88.1128 61.8557 85.1605 59.0045 81.4909 56.6503C77.8052 54.2858 73.5167 52.5 68.9998 52.5C64.4829 52.5 60.1944 54.2858 56.5087 56.6503C52.8391 59.0045 49.8868 61.8557 48.0682 63.8117ZM54.5802 53.6443C58.5909 51.0713 63.5525 48.9286 68.9998 48.9286C74.4471 48.9286 79.4087 51.0713 83.4194 53.6443C87.4393 56.2232 90.6257 59.3121 92.5579 61.3916C92.5638 61.3979 92.5697 61.4043 92.5754 61.4107C93.4639 62.3951 93.9557 63.674 93.9557 65C93.9557 66.326 93.4639 67.6049 92.5754 68.5893C92.5697 68.5957 92.5638 68.6021 92.5579 68.6084C90.6257 70.6879 87.4393 73.7768 83.4194 76.3557C79.4087 78.9287 74.4471 81.0714 68.9998 81.0714C63.5525 81.0714 58.5909 78.9287 54.5802 76.3557C50.5603 73.7768 47.3739 70.6879 45.4417 68.6084C45.4358 68.6021 45.4299 68.5957 45.4242 68.5893C44.5357 67.6049 44.0439 66.326 44.0439 65C44.0439 63.674 44.5357 62.3951 45.4242 61.4107C45.4299 61.4043 45.4358 61.3979 45.4417 61.3916C47.3739 59.3121 50.5603 56.2232 54.5802 53.6443Z" fill="#2D2D2D"/>
<path fill-rule="evenodd" clip-rule="evenodd" d="M68.9999 59.6429C66.0412 59.6429 63.6427 62.0413 63.6427 65C63.6427 67.9587 66.0412 70.3571 68.9999 70.3571C71.9585 70.3571 74.357 67.9587 74.357 65C74.357 62.0413 71.9585 59.6429 68.9999 59.6429ZM60.0713 65C60.0713 60.0689 64.0687 56.0714 68.9999 56.0714C73.931 56.0714 77.9284 60.0689 77.9284 65C77.9284 69.9311 73.931 73.9286 68.9999 73.9286C64.0687 73.9286 60.0713 69.9311 60.0713 65Z" fill="#2D2D2D"/>
<defs>
<filter id="filter0_d_723_5051" x="0" y="-4" width="136" height="136" filterUnits="userSpaceOnUse" color-interpolation-filters="sRGB">
<feFlood flood-opacity="0" result="BackgroundImageFix"/>
<feColorMatrix in="SourceAlpha" type="matrix" values="0 0 0 0 0 0 0 0 0 0 0 0 0 0 0 0 0 0 127 0" result="hardAlpha"/>
<feOffset/>
<feGaussianBlur stdDeviation="12"/>
<feComposite in2="hardAlpha" operator="out"/>
<feColorMatrix type="matrix" values="0 0 0 0 0 0 0 0 0 0 0 0 0 0 0 0 0 0 0.12 0"/>
<feBlend mode="normal" in2="BackgroundImageFix" result="effect1_dropShadow_723_5051"/>
<feBlend mode="normal" in="SourceGraphic" in2="effect1_dropShadow_723_5051" result="shape"/>
</filter>
</defs>
</svg>
