<svg width="136" height="136" viewBox="0 0 136 136" fill="none" xmlns="http://www.w3.org/2000/svg">
<g filter="url(#filter0_d_728_5047)">
<circle cx="68" cy="68" r="44" fill="#1B7DA7"/>
</g>
<path fill-rule="evenodd" clip-rule="evenodd" d="M48.0682 67.8117C47.7766 68.1387 47.6154 68.5616 47.6154 69C47.6154 69.4384 47.7766 69.8613 48.0682 70.1883C49.8868 72.1443 52.8391 74.9955 56.5087 77.3497C60.1944 79.7142 64.4829 81.5 68.9998 81.5C73.5167 81.5 77.8052 79.7142 81.4909 77.3497C85.1605 74.9955 88.1128 72.1443 89.9314 70.1884C90.223 69.8614 90.3842 69.4384 90.3842 69C90.3842 68.5616 90.223 68.1387 89.9314 67.8116C88.1128 65.8557 85.1605 63.0045 81.4909 60.6503C77.8052 58.2858 73.5167 56.5 68.9998 56.5C64.4829 56.5 60.1944 58.2858 56.5087 60.6503C52.8391 63.0045 49.8868 65.8557 48.0682 67.8117ZM54.5802 57.6443C58.5909 55.0713 63.5525 52.9286 68.9998 52.9286C74.4471 52.9286 79.4087 55.0713 83.4194 57.6443C87.4393 60.2232 90.6257 63.3121 92.5579 65.3916C92.5638 65.3979 92.5697 65.4043 92.5754 65.4107C93.4639 66.3951 93.9556 67.674 93.9556 69C93.9556 70.326 93.4639 71.6049 92.5754 72.5893C92.5697 72.5957 92.5638 72.6021 92.5579 72.6084C90.6257 74.6879 87.4393 77.7768 83.4194 80.3557C79.4087 82.9287 74.4471 85.0714 68.9998 85.0714C63.5525 85.0714 58.5909 82.9287 54.5802 80.3557C50.5603 77.7768 47.3739 74.6879 45.4417 72.6084C45.4358 72.6021 45.4299 72.5957 45.4242 72.5893C44.5357 71.6049 44.0439 70.326 44.0439 69C44.0439 67.674 44.5357 66.3951 45.4242 65.4107C45.4299 65.4043 45.4358 65.3979 45.4417 65.3916C47.3739 63.3121 50.5603 60.2232 54.5802 57.6443Z" fill="white"/>
<path fill-rule="evenodd" clip-rule="evenodd" d="M68.9999 63.6429C66.0412 63.6429 63.6427 66.0413 63.6427 69C63.6427 71.9587 66.0412 74.3571 68.9999 74.3571C71.9585 74.3571 74.357 71.9587 74.357 69C74.357 66.0413 71.9585 63.6429 68.9999 63.6429ZM60.0713 69C60.0713 64.0689 64.0687 60.0714 68.9999 60.0714C73.931 60.0714 77.9284 64.0689 77.9284 69C77.9284 73.9311 73.931 77.9286 68.9999 77.9286C64.0687 77.9286 60.0713 73.9311 60.0713 69Z" fill="white"/>
<defs>
<filter id="filter0_d_728_5047" x="0" y="0" width="136" height="136" filterUnits="userSpaceOnUse" color-interpolation-filters="sRGB">
<feFlood flood-opacity="0" result="BackgroundImageFix"/>
<feColorMatrix in="SourceAlpha" type="matrix" values="0 0 0 0 0 0 0 0 0 0 0 0 0 0 0 0 0 0 127 0" result="hardAlpha"/>
<feOffset/>
<feGaussianBlur stdDeviation="12"/>
<feComposite in2="hardAlpha" operator="out"/>
<feColorMatrix type="matrix" values="0 0 0 0 0 0 0 0 0 0 0 0 0 0 0 0 0 0 0.12 0"/>
<feBlend mode="normal" in2="BackgroundImageFix" result="effect1_dropShadow_728_5047"/>
<feBlend mode="normal" in="SourceGraphic" in2="effect1_dropShadow_728_5047" result="shape"/>
</filter>
</defs>
</svg>
