<svg width="132" height="136" viewBox="0 0 132 136" fill="none" xmlns="http://www.w3.org/2000/svg">
<g filter="url(#filter0_d_728_5040)">
<circle cx="64" cy="68" r="44" fill="#578A80"/>
</g>
<path fill-rule="evenodd" clip-rule="evenodd" d="M61.7373 46.523C62.4347 45.8257 63.5653 45.8257 64.2627 46.523L87.477 69.7373C88.1743 70.4347 88.1743 71.5653 87.477 72.2627C86.7796 72.9601 85.649 72.9601 84.9516 72.2627L63 50.3111L41.0484 72.2627C40.351 72.9601 39.2204 72.9601 38.523 72.2627C37.8257 71.5653 37.8257 70.4347 38.523 69.7373L61.7373 46.523Z" fill="white"/>
<path fill-rule="evenodd" clip-rule="evenodd" d="M46.9283 62.0714C47.9145 62.0714 48.714 62.8709 48.714 63.8571V85.2857H77.2854V63.8571C77.2854 62.8709 78.0849 62.0714 79.0711 62.0714C80.0574 62.0714 80.8569 62.8709 80.8569 63.8571V87.0714C80.8569 88.0576 80.0574 88.8571 79.0711 88.8571H46.9283C45.9421 88.8571 45.1426 88.0576 45.1426 87.0714V63.8571C45.1426 62.8709 45.9421 62.0714 46.9283 62.0714Z" fill="white"/>
<path fill-rule="evenodd" clip-rule="evenodd" d="M62.9996 71C63.9858 71 64.7853 71.7995 64.7853 72.7857V87.0714C64.7853 88.0577 63.9858 88.8571 62.9996 88.8571C62.0134 88.8571 61.2139 88.0577 61.2139 87.0714V72.7857C61.2139 71.7995 62.0134 71 62.9996 71Z" fill="white"/>
<defs>
<filter id="filter0_d_728_5040" x="-4" y="0" width="136" height="136" filterUnits="userSpaceOnUse" color-interpolation-filters="sRGB">
<feFlood flood-opacity="0" result="BackgroundImageFix"/>
<feColorMatrix in="SourceAlpha" type="matrix" values="0 0 0 0 0 0 0 0 0 0 0 0 0 0 0 0 0 0 127 0" result="hardAlpha"/>
<feOffset/>
<feGaussianBlur stdDeviation="12"/>
<feComposite in2="hardAlpha" operator="out"/>
<feColorMatrix type="matrix" values="0 0 0 0 0 0 0 0 0 0 0 0 0 0 0 0 0 0 0.12 0"/>
<feBlend mode="normal" in2="BackgroundImageFix" result="effect1_dropShadow_728_5040"/>
<feBlend mode="normal" in="SourceGraphic" in2="effect1_dropShadow_728_5040" result="shape"/>
</filter>
</defs>
</svg>
