<svg width="32" height="32" viewBox="0 0 32 32" fill="none" xmlns="http://www.w3.org/2000/svg">
<path fill-rule="evenodd" clip-rule="evenodd" d="M15.8387 9.14778C16.1322 9.29367 16.3188 9.60063 16.3188 9.9374V22.2026C16.3188 22.5394 16.1322 22.8463 15.8387 22.9922C15.5451 23.1381 15.1968 23.0971 14.9425 22.8867L10.9387 19.5743H7.84717C7.37929 19.5743 7 19.1821 7 18.6982V13.4417C7 12.9579 7.37929 12.5657 7.84717 12.5657H10.9387L14.9425 9.2533C15.1968 9.04292 15.5451 9.0019 15.8387 9.14778ZM14.6245 11.7602L11.7651 14.1258C11.6148 14.2501 11.4282 14.3178 11.2358 14.3178H8.69434V17.8222H11.2358C11.4282 17.8222 11.6148 17.8899 11.7651 18.0141L14.6245 20.3798V11.7602Z" fill="#767676"/>
<path fill-rule="evenodd" clip-rule="evenodd" d="M21.7094 9.25651C22.0403 8.91443 22.5767 8.91451 22.9075 9.25669C24.6545 11.0639 25.6359 13.5146 25.6359 16.07C25.6359 18.6254 24.6545 21.0761 22.9075 22.8833C22.5767 23.2255 22.0403 23.2256 21.7094 22.8835C21.3785 22.5414 21.3785 21.9867 21.7092 21.6445C23.1386 20.1659 23.9416 18.1608 23.9416 16.07C23.9416 13.9792 23.1386 11.9741 21.7092 10.4955C21.3785 10.1533 21.3785 9.59859 21.7094 9.25651ZM18.7189 12.3491C19.0498 12.007 19.5862 12.0071 19.917 12.3493C20.8699 13.335 21.4052 14.6718 21.4052 16.0656C21.4052 17.4595 20.8699 18.7962 19.917 19.782C19.5862 20.1242 19.0498 20.1242 18.7189 19.7822C18.388 19.4401 18.388 18.8854 18.7187 18.5432C19.354 17.886 19.7109 16.9948 19.7109 16.0656C19.7109 15.1364 19.354 14.2452 18.7187 13.5881C18.388 13.2459 18.388 12.6912 18.7189 12.3491Z" fill="#767676"/>
</svg>
