<svg width="32" height="32" viewBox="0 0 32 32" fill="none" xmlns="http://www.w3.org/2000/svg">
<path fill-rule="evenodd" clip-rule="evenodd" d="M7 9.66666C7 8.93028 7.59695 8.33333 8.33333 8.33333H21.6667C22.403 8.33333 23 8.93028 23 9.66666V23C23 23.7364 22.403 24.3333 21.6667 24.3333H8.33333C7.59695 24.3333 7 23.7364 7 23V9.66666ZM21.6667 9.66666H8.33333V23H21.6667V9.66666Z" fill="#767676"/>
<path fill-rule="evenodd" clip-rule="evenodd" d="M18.9997 7C19.3679 7 19.6663 7.29848 19.6663 7.66667V10.3333C19.6663 10.7015 19.3679 11 18.9997 11C18.6315 11 18.333 10.7015 18.333 10.3333V7.66667C18.333 7.29848 18.6315 7 18.9997 7Z" fill="#767676"/>
<path fill-rule="evenodd" clip-rule="evenodd" d="M10.9997 7C11.3679 7 11.6663 7.29848 11.6663 7.66667V10.3333C11.6663 10.7015 11.3679 11 10.9997 11C10.6315 11 10.333 10.7015 10.333 10.3333V7.66667C10.333 7.29848 10.6315 7 10.9997 7Z" fill="#767676"/>
<path fill-rule="evenodd" clip-rule="evenodd" d="M7 13C7 12.6318 7.29848 12.3333 7.66667 12.3333H22.3333C22.7015 12.3333 23 12.6318 23 13C23 13.3682 22.7015 13.6667 22.3333 13.6667H7.66667C7.29848 13.6667 7 13.3682 7 13Z" fill="#767676"/>
</svg>
