<svg width="32" height="32" viewBox="0 0 32 32" fill="none" xmlns="http://www.w3.org/2000/svg">
<path fill-rule="evenodd" clip-rule="evenodd" d="M7 9.76938C7 9.00468 7.61991 8.38477 8.38462 8.38477H22.2308C22.9955 8.38477 23.6154 9.00468 23.6154 9.76938V23.6155C23.6154 24.3802 22.9955 25.0002 22.2308 25.0002H8.38462C7.61991 25.0002 7 24.3802 7 23.6155V9.76938ZM22.2308 9.76938H8.38462V23.6155H22.2308V9.76938Z" fill="#767676"/>
<path fill-rule="evenodd" clip-rule="evenodd" d="M19.4614 7.00012C19.8437 7.00012 20.1537 7.31008 20.1537 7.69243V10.4617C20.1537 10.844 19.8437 11.154 19.4614 11.154C19.079 11.154 18.769 10.844 18.769 10.4617V7.69243C18.769 7.31008 19.079 7.00012 19.4614 7.00012Z" fill="#767676"/>
<path fill-rule="evenodd" clip-rule="evenodd" d="M11.1537 7.00012C11.5361 7.00012 11.846 7.31008 11.846 7.69243V10.4617C11.846 10.844 11.5361 11.154 11.1537 11.154C10.7714 11.154 10.4614 10.844 10.4614 10.4617V7.69243C10.4614 7.31008 10.7714 7.00012 11.1537 7.00012Z" fill="#767676"/>
<path fill-rule="evenodd" clip-rule="evenodd" d="M7 13.2309C7 12.8485 7.30996 12.5386 7.69231 12.5386H22.9231C23.3054 12.5386 23.6154 12.8485 23.6154 13.2309C23.6154 13.6132 23.3054 13.9232 22.9231 13.9232H7.69231C7.30996 13.9232 7 13.6132 7 13.2309Z" fill="#767676"/>
</svg>
