<svg width="32" height="32" viewBox="0 0 32 32" fill="none" xmlns="http://www.w3.org/2000/svg">
<path fill-rule="evenodd" clip-rule="evenodd" d="M16.0001 15C14.7951 15 13.8183 15.9768 13.8183 17.1818C13.8183 18.3868 14.7951 19.3636 16.0001 19.3636C17.2051 19.3636 18.182 18.3868 18.182 17.1818C18.182 15.9768 17.2051 15 16.0001 15ZM12.3638 17.1818C12.3638 15.1735 13.9918 13.5454 16.0001 13.5454C18.0084 13.5454 19.6365 15.1735 19.6365 17.1818C19.6365 19.1901 18.0084 20.8182 16.0001 20.8182C13.9918 20.8182 12.3638 19.1901 12.3638 17.1818Z" fill="#767676"/>
<path fill-rule="evenodd" clip-rule="evenodd" d="M15.9996 20.8182C15.2658 20.8182 14.5419 20.9891 13.8855 21.3173C13.2291 21.6455 12.6582 22.122 12.2178 22.7091C11.9768 23.0304 11.521 23.0955 11.1996 22.8545C10.8783 22.6136 10.8132 22.1577 11.0542 21.8364C11.63 21.0686 12.3767 20.4455 13.235 20.0163C14.0934 19.5871 15.0399 19.3636 15.9996 19.3636C16.9593 19.3636 17.9059 19.5871 18.7642 20.0163C19.6226 20.4455 20.3693 21.0686 20.9451 21.8364C21.1861 22.1577 21.121 22.6136 20.7996 22.8545C20.4783 23.0955 20.0225 23.0304 19.7815 22.7091C19.3411 22.122 18.7702 21.6455 18.1137 21.3173C17.4573 20.9891 16.7335 20.8182 15.9996 20.8182Z" fill="#767676"/>
<path fill-rule="evenodd" clip-rule="evenodd" d="M22.5455 7C23.3488 7 24 7.65122 24 8.45455V24.4545C24 25.2579 23.3488 25.9091 22.5455 25.9091H9.45455C8.65122 25.9091 8 25.2579 8 24.4545V8.45455C8 7.65122 8.65122 7 9.45455 7L22.5455 7ZM22.5455 24.4545V8.45455H9.45455L9.45455 24.4545H22.5455Z" fill="#767676"/>
<path fill-rule="evenodd" clip-rule="evenodd" d="M12.3638 10.6364C12.3638 10.2347 12.6894 9.9091 13.091 9.9091H18.9092C19.3109 9.9091 19.6365 10.2347 19.6365 10.6364C19.6365 11.038 19.3109 11.3636 18.9092 11.3636H13.091C12.6894 11.3636 12.3638 11.038 12.3638 10.6364Z" fill="#767676"/>
</svg>
