<svg width="32" height="32" viewBox="0 0 32 32" fill="none" xmlns="http://www.w3.org/2000/svg">
<path fill-rule="evenodd" clip-rule="evenodd" d="M15.6153 14.6155C14.4683 14.6155 13.5384 15.5454 13.5384 16.6924C13.5384 17.8395 14.4683 18.7694 15.6153 18.7694C16.7624 18.7694 17.6923 17.8395 17.6923 16.6924C17.6923 15.5454 16.7624 14.6155 15.6153 14.6155ZM12.1538 16.6924C12.1538 14.7807 13.7036 13.2309 15.6153 13.2309C17.5271 13.2309 19.0769 14.7807 19.0769 16.6924C19.0769 18.6042 17.5271 20.154 15.6153 20.154C13.7036 20.154 12.1538 18.6042 12.1538 16.6924Z" fill="#767676"/>
<path fill-rule="evenodd" clip-rule="evenodd" d="M15.6152 20.154C14.9166 20.154 14.2276 20.3166 13.6028 20.629C12.9779 20.9415 12.4344 21.3951 12.0152 21.954C11.7858 22.2598 11.3519 22.3218 11.046 22.0924C10.7401 21.863 10.6781 21.4291 10.9075 21.1232C11.4557 20.3923 12.1664 19.7992 12.9836 19.3906C13.8007 18.982 14.7017 18.7693 15.6152 18.7693C16.5288 18.7693 17.4298 18.982 18.2469 19.3906C19.064 19.7992 19.7748 20.3923 20.3229 21.1232C20.5523 21.4291 20.4903 21.863 20.1845 22.0924C19.8786 22.3218 19.4446 22.2598 19.2152 21.954C18.7961 21.3951 18.2525 20.9415 17.6277 20.629C17.0028 20.3166 16.3138 20.154 15.6152 20.154Z" fill="#767676"/>
<path fill-rule="evenodd" clip-rule="evenodd" d="M21.8463 7.00012C22.611 7.00012 23.231 7.62004 23.231 8.38474V23.6155C23.231 24.3802 22.611 25.0001 21.8463 25.0001H9.3848C8.6201 25.0001 8.00019 24.3802 8.00019 23.6155L8.00019 8.38474C8.00019 7.62004 8.6201 7.00012 9.3848 7.00012L21.8463 7.00012ZM21.8463 23.6155V8.38474H9.3848L9.3848 23.6155H21.8463Z" fill="#767676"/>
<path fill-rule="evenodd" clip-rule="evenodd" d="M12.1538 10.4617C12.1538 10.0793 12.4638 9.76935 12.8461 9.76935H18.3846C18.7669 9.76935 19.0769 10.0793 19.0769 10.4617C19.0769 10.844 18.7669 11.154 18.3846 11.154H12.8461C12.4638 11.154 12.1538 10.844 12.1538 10.4617Z" fill="#767676"/>
</svg>
