<svg width="32" height="32" viewBox="0 0 32 32" fill="none" xmlns="http://www.w3.org/2000/svg">
<path fill-rule="evenodd" clip-rule="evenodd" d="M11.7082 9.16672C11.9289 8.78397 12.4181 8.65262 12.8009 8.87334L20.0009 13.0253C20.3836 13.2461 20.515 13.7353 20.2942 14.118C20.0735 14.5008 19.5843 14.6321 19.2016 14.4114L12.0016 10.2594C11.6188 10.0387 11.4875 9.54946 11.7082 9.16672Z" fill="#767676"/>
<path fill-rule="evenodd" clip-rule="evenodd" d="M14.8017 7.32055C15.1661 7.11055 15.5794 7 16 7C16.4206 7 16.8339 7.11056 17.1983 7.32058C17.1989 7.3209 17.1994 7.32122 17.2 7.32154L22.8 10.5215C23.1645 10.732 23.4672 11.0346 23.6778 11.3989C23.8885 11.7633 23.9996 12.1767 24 12.5975V18.9992C23.9996 19.4201 23.8885 19.8334 23.6778 20.1978C23.4672 20.5622 23.1645 20.8647 22.8 21.0752L22.7969 21.077L17.2 24.2752C17.1995 24.2755 17.199 24.2757 17.1986 24.276C16.8341 24.4861 16.4207 24.5967 16 24.5967C15.5793 24.5967 15.166 24.4861 14.8015 24.276C14.801 24.2757 14.8005 24.2755 14.8 24.2752L9.20309 21.077L9.2 21.0752C8.83551 20.8647 8.53278 20.5622 8.32215 20.1978C8.11153 19.8334 8.00043 19.4201 8 18.9992V12.5975C8.00043 12.1767 8.11153 11.7633 8.32215 11.3989C8.53278 11.0346 8.83552 10.732 9.2 10.5215L9.20308 10.5198L14.8017 7.32055ZM16 8.6C15.8596 8.6 15.7216 8.63697 15.6 8.70718L15.5969 8.70896L10 11.9072C9.99958 11.9074 9.99916 11.9077 9.99874 11.9079C9.87781 11.978 9.77735 12.0786 9.70738 12.1996C9.63723 12.321 9.6002 12.4587 9.6 12.5988V18.9979C9.6002 19.1381 9.63723 19.2757 9.70738 19.3971C9.77735 19.5181 9.87781 19.6187 9.99874 19.6888C9.99916 19.6891 9.99958 19.6893 10 19.6895L15.6 22.8895C15.7216 22.9598 15.8596 22.9967 16 22.9967C16.1404 22.9967 16.2784 22.9598 16.4 22.8895L16.4031 22.8878L22 19.6895C22.0004 19.6893 22.0008 19.6891 22.0013 19.6888C22.1222 19.6187 22.2227 19.5181 22.2926 19.3971C22.3628 19.2756 22.3999 19.1378 22.4 18.9975V12.5992C22.3999 12.4589 22.3628 12.3211 22.2926 12.1996C22.2227 12.0786 22.1222 11.978 22.0013 11.9079C22.0008 11.9077 22.0004 11.9074 22 11.9072L16.4 8.70719C16.2784 8.63697 16.1404 8.6 16 8.6Z" fill="#767676"/>
<path fill-rule="evenodd" clip-rule="evenodd" d="M8.32396 11.3658C8.54519 10.9833 9.03457 10.8526 9.41702 11.0739L16.0004 14.8822L22.5839 11.0739C22.9663 10.8526 23.4557 10.9833 23.6769 11.3658C23.8982 11.7482 23.7675 12.2376 23.385 12.4589L16.401 16.4989C16.1532 16.6422 15.8477 16.6422 15.5999 16.4989L8.61586 12.4589C8.23341 12.2376 8.10272 11.7482 8.32396 11.3658Z" fill="#767676"/>
<path fill-rule="evenodd" clip-rule="evenodd" d="M15.9997 14.9984C16.4415 14.9984 16.7997 15.3565 16.7997 15.7984V23.8624C16.7997 24.3042 16.4415 24.6624 15.9997 24.6624C15.5579 24.6624 15.1997 24.3042 15.1997 23.8624V15.7984C15.1997 15.3565 15.5579 14.9984 15.9997 14.9984Z" fill="#767676"/>
</svg>
