<svg width="32" height="32" viewBox="0 0 32 32" fill="none" xmlns="http://www.w3.org/2000/svg">
<path d="M20.5 13.3981L11.5 8.20813" stroke="#767676" stroke-width="2" stroke-linecap="round" stroke-linejoin="round"/>
<path d="M25 19.9981V11.9981C24.9996 11.6474 24.9071 11.3029 24.7315 10.9993C24.556 10.6956 24.3037 10.4435 24 10.2681L17 6.26813C16.696 6.0926 16.3511 6.00018 16 6.00018C15.6489 6.00018 15.304 6.0926 15 6.26813L8 10.2681C7.69626 10.4435 7.44398 10.6956 7.26846 10.9993C7.09294 11.3029 7.00036 11.6474 7 11.9981V19.9981C7.00036 20.3489 7.09294 20.6933 7.26846 20.997C7.44398 21.3006 7.69626 21.5528 8 21.7281L15 25.7281C15.304 25.9037 15.6489 25.9961 16 25.9961C16.3511 25.9961 16.696 25.9037 17 25.7281L24 21.7281C24.3037 21.5528 24.556 21.3006 24.7315 20.997C24.9071 20.6933 24.9996 20.3489 25 19.9981Z" stroke="#767676" stroke-width="2" stroke-linecap="round" stroke-linejoin="round"/>
<path d="M7.27002 10.9581L16 16.0081L24.73 10.9581" stroke="#767676" stroke-width="2" stroke-linecap="round" stroke-linejoin="round"/>
<path d="M16 26.0781V15.9981" stroke="#767676" stroke-width="2" stroke-linecap="round" stroke-linejoin="round"/>
</svg>
