<svg width="32" height="32" viewBox="0 0 32 32" fill="none" xmlns="http://www.w3.org/2000/svg">
<path fill-rule="evenodd" clip-rule="evenodd" d="M22.3041 19.8261C21.5357 19.8261 20.9128 20.449 20.9128 21.2174C20.9128 21.9858 21.5357 22.6087 22.3041 22.6087C23.0725 22.6087 23.6954 21.9858 23.6954 21.2174C23.6954 20.449 23.0725 19.8261 22.3041 19.8261ZM19.5215 21.2174C19.5215 19.6806 20.7673 18.4348 22.3041 18.4348C23.8409 18.4348 25.0867 19.6806 25.0867 21.2174C25.0867 22.7542 23.8409 24 22.3041 24C20.7673 24 19.5215 22.7542 19.5215 21.2174Z" fill="#767676"/>
<path fill-rule="evenodd" clip-rule="evenodd" d="M10.4783 8.69565C10.4783 8.31145 10.7897 8 11.1739 8H19.5217C20.4442 8 21.3289 8.36646 21.9812 9.01876C22.6335 9.67106 23 10.5558 23 11.4783C23 12.4008 22.6335 13.2855 21.9812 13.9378C21.3289 14.5901 20.4442 14.9565 19.5217 14.9565H11.1739C10.4359 14.9565 9.72815 15.2497 9.20631 15.7715C8.68447 16.2934 8.3913 17.0011 8.3913 17.7391C8.3913 18.4771 8.68447 19.1849 9.20631 19.7067C9.72815 20.2286 10.4359 20.5217 11.1739 20.5217H20.2174C20.6016 20.5217 20.913 20.8332 20.913 21.2174C20.913 21.6016 20.6016 21.913 20.2174 21.913H11.1739C10.0669 21.913 9.00527 21.4733 8.22251 20.6905C7.43975 19.9078 7 18.8461 7 17.7391C7 16.6321 7.43975 15.5705 8.22251 14.7877C9.00527 14.005 10.0669 13.5652 11.1739 13.5652H19.5217C20.0752 13.5652 20.6061 13.3453 20.9974 12.954C21.3888 12.5626 21.6087 12.0318 21.6087 11.4783C21.6087 10.9248 21.3888 10.3939 20.9974 10.0026C20.6061 9.61118 20.0752 9.3913 19.5217 9.3913H11.1739C10.7897 9.3913 10.4783 9.07985 10.4783 8.69565Z" fill="#767676"/>
</svg>
