<svg width="33" height="32" viewBox="0 0 33 32" fill="none" xmlns="http://www.w3.org/2000/svg">
<path fill-rule="evenodd" clip-rule="evenodd" d="M23.7173 20.3045C22.8529 20.3045 22.1521 21.0052 22.1521 21.8697C22.1521 22.7341 22.8529 23.4349 23.7173 23.4349C24.5818 23.4349 25.2826 22.7341 25.2826 21.8697C25.2826 21.0052 24.5818 20.3045 23.7173 20.3045ZM20.5869 21.8697C20.5869 20.1408 21.9885 18.7393 23.7173 18.7393C25.4462 18.7393 26.8478 20.1408 26.8478 21.8697C26.8478 23.5986 25.4462 25.0001 23.7173 25.0001C21.9885 25.0001 20.5869 23.5986 20.5869 21.8697Z" fill="#767676"/>
<path fill-rule="evenodd" clip-rule="evenodd" d="M10.413 7.78273C10.413 7.35051 10.7634 7.00012 11.1957 7.00012H20.587C21.6248 7.00012 22.6201 7.41239 23.3539 8.14623C24.0877 8.88006 24.5 9.87536 24.5 10.9132C24.5 11.951 24.0877 12.9463 23.3539 13.6801C22.6201 14.4139 21.6248 14.8262 20.587 14.8262H11.1957C10.3654 14.8262 9.56917 15.156 8.9821 15.7431C8.39503 16.3302 8.06522 17.1264 8.06522 17.9566C8.06522 18.7869 8.39503 19.5831 8.9821 20.1702C9.56917 20.7573 10.3654 21.0871 11.1957 21.0871H21.3696C21.8018 21.0871 22.1522 21.4375 22.1522 21.8697C22.1522 22.3019 21.8018 22.6523 21.3696 22.6523H11.1957C9.95029 22.6523 8.75593 22.1576 7.87532 21.277C6.99472 20.3964 6.5 19.202 6.5 17.9566C6.5 16.7113 6.99472 15.5169 7.87532 14.6363C8.75593 13.7557 9.95029 13.261 11.1957 13.261H20.587C21.2096 13.261 21.8068 13.0136 22.2471 12.5733C22.6874 12.133 22.9348 11.5358 22.9348 10.9132C22.9348 10.2905 22.6874 9.6933 22.2471 9.253C21.8068 8.8127 21.2096 8.56534 20.587 8.56534H11.1957C10.7634 8.56534 10.413 8.21495 10.413 7.78273Z" fill="#767676"/>
</svg>
