<svg width="18" height="17" viewBox="0 0 18 17" fill="none" xmlns="http://www.w3.org/2000/svg">
<path fill-rule="evenodd" clip-rule="evenodd" d="M7.76571 1.39286C4.6603 1.39286 2.14286 3.9103 2.14286 7.01571C2.14286 10.1211 4.6603 12.6386 7.76571 12.6386C10.8711 12.6386 13.3886 10.1211 13.3886 7.01571C13.3886 3.9103 10.8711 1.39286 7.76571 1.39286ZM1 7.01571C1 3.27911 4.02911 0.25 7.76571 0.25C11.5023 0.25 14.5314 3.27911 14.5314 7.01571C14.5314 10.7523 11.5023 13.7814 7.76571 13.7814C4.02911 13.7814 1 10.7523 1 7.01571Z" fill="#767676"/>
<path fill-rule="evenodd" clip-rule="evenodd" d="M0.75 7.01571C0.75 3.14104 3.89104 0 7.76571 0C11.6404 0 14.7814 3.14104 14.7814 7.01571C14.7814 10.8904 11.6404 14.0314 7.76571 14.0314C3.89104 14.0314 0.75 10.8904 0.75 7.01571ZM7.76571 0.5C4.16718 0.5 1.25 3.41718 1.25 7.01571C1.25 10.6142 4.16718 13.5314 7.76571 13.5314C11.3642 13.5314 14.2814 10.6142 14.2814 7.01571C14.2814 3.41718 11.3642 0.5 7.76571 0.5ZM7.76571 1.64286C4.79837 1.64286 2.39286 4.04837 2.39286 7.01571C2.39286 9.98306 4.79837 12.3886 7.76571 12.3886C10.7331 12.3886 13.1386 9.98306 13.1386 7.01571C13.1386 4.04837 10.7331 1.64286 7.76571 1.64286ZM1.89286 7.01571C1.89286 3.77222 4.52222 1.14286 7.76571 1.14286C11.0092 1.14286 13.6386 3.77222 13.6386 7.01571C13.6386 10.2592 11.0092 12.8886 7.76571 12.8886C4.52222 12.8886 1.89286 10.2592 1.89286 7.01571Z" fill="#767676"/>
<path fill-rule="evenodd" clip-rule="evenodd" d="M11.7388 10.9888C11.9619 10.7656 12.3237 10.7656 12.5469 10.9888L16.8326 15.2745C17.0558 15.4976 17.0558 15.8595 16.8326 16.0826C16.6095 16.3058 16.2476 16.3058 16.0245 16.0826L11.7388 11.7969C11.5156 11.5737 11.5156 11.2119 11.7388 10.9888Z" fill="#767676"/>
<path fill-rule="evenodd" clip-rule="evenodd" d="M11.562 10.812C11.8828 10.4912 12.4029 10.4912 12.7237 10.812L17.0094 15.0977C17.3302 15.4185 17.3302 15.9386 17.0094 16.2594C16.6886 16.5802 16.1685 16.5802 15.8477 16.2594L11.562 11.9737C11.2412 11.6529 11.2412 11.1328 11.562 10.812L11.7388 10.9888L11.562 10.812ZM12.3701 11.1656C12.2446 11.04 12.0411 11.04 11.9156 11.1656C11.79 11.2911 11.79 11.4946 11.9156 11.6201L16.2013 15.9058C16.3268 16.0314 16.5303 16.0314 16.6558 15.9058C16.7814 15.7803 16.7814 15.5768 16.6558 15.4513L12.3701 11.1656Z" fill="#767676"/>
</svg>
