<svg width="36" height="37" viewBox="0 0 36 37" fill="none" xmlns="http://www.w3.org/2000/svg">
<path d="M18.9941 35.8284C18.3526 36.0759 17.642 36.0759 17.0005 35.8284C11.9952 33.9068 7.69065 30.512 4.65533 26.0925C1.62 21.673 -0.00324192 16.4367 4.86111e-06 11.0752V2.76881C4.86111e-06 2.03448 0.291718 1.33022 0.810971 0.810966C1.33022 0.291713 2.03448 0 2.76882 0H33.2257C33.9601 0 34.6643 0.291713 35.1836 0.810966C35.7028 1.33022 35.9945 2.03448 35.9945 2.76881V11.0752C35.9978 16.4367 34.3746 21.673 31.3392 26.0925C28.3039 30.512 23.9993 33.9068 18.9941 35.8284Z" fill="#767676"/>
<path d="M10.5479 23.5954V22.202C10.8716 22.1879 11.139 22.1457 11.3501 22.0753C11.5753 22.005 11.7442 21.8431 11.8568 21.5898C11.9834 21.3364 12.0468 20.9283 12.0468 20.3653V12.2795C12.0468 11.8995 12.0538 11.5336 12.0679 11.1817C12.096 10.8298 12.1172 10.5624 12.1312 10.3795C11.906 10.3935 11.6245 10.4076 11.2868 10.4217C10.949 10.4217 10.7027 10.4287 10.5479 10.4428V8.8172H16.6069V10.2106C16.2973 10.2246 16.0299 10.2669 15.8047 10.3372C15.5795 10.4076 15.4035 10.5695 15.2769 10.8228C15.1643 11.0621 15.108 11.4702 15.108 12.0473V15.3407H20.9137V12.2795C20.9137 11.8995 20.9207 11.5336 20.9348 11.1817C20.9489 10.8298 20.97 10.5624 20.9981 10.3795C20.7729 10.3935 20.4915 10.4076 20.1537 10.4217C19.8159 10.4217 19.5696 10.4287 19.4148 10.4428V8.8172H25.4738V10.2106C25.1642 10.2246 24.8968 10.2669 24.6716 10.3372C24.4464 10.4076 24.2704 10.5695 24.1438 10.8228C24.0312 11.0621 23.9749 11.4702 23.9749 12.0473V20.1331C23.9749 20.5131 23.9678 20.879 23.9538 21.2309C23.9397 21.5827 23.9186 21.8501 23.8904 22.0331C24.1156 22.005 24.3971 21.9909 24.7349 21.9909C25.0868 21.9768 25.3331 21.9698 25.4738 21.9698V23.5954H19.4148V22.202C19.7385 22.1879 20.0059 22.1457 20.217 22.0753C20.4422 22.005 20.6111 21.8431 20.7237 21.5898C20.8504 21.3364 20.9137 20.9283 20.9137 20.3653V16.9452L15.108 17.0085V20.1331C15.108 20.5131 15.1009 20.879 15.0869 21.2309C15.0728 21.5827 15.0517 21.8501 15.0235 22.0331C15.2487 22.005 15.5302 21.9909 15.868 21.9909C16.2199 21.9768 16.4662 21.9698 16.6069 21.9698V23.5954H10.5479Z" fill="white"/>
</svg>
